Coordinates
version=1
nRows=15
nColumns=42
inDegrees=yes

Units are S.I. units (second, meters, Newtons, ...)
If the header above contains a line with 'inDegrees', this indicates whether rotational values are in degrees (yes) or radians (no).

endheader
time	pelvis_tilt	pelvis_list	pelvis_rotation	pelvis_tx	pelvis_ty	pelvis_tz	hip_flexion_r	hip_adduction_r	hip_rotation_r	knee_angle_r	knee_adduction_r	knee_angle_r_beta	ankle_angle_r	subtalar_angle_r	mtp_angle_r	hip_flexion_l	hip_adduction_l	hip_rotation_l	knee_angle_l	knee_adduction_l	knee_angle_l_beta	ankle_angle_l	subtalar_angle_l	mtp_angle_l	lumbar_extension	lumbar_bending	lumbar_rotation	arm_flex_r	arm_add_r	arm_rot_r	elbow_flex_r	pro_sup_r	wrist_flex_r	wrist_dev_r	arm_flex_l	arm_add_l	arm_rot_l	elbow_flex_l	pro_sup_l	wrist_flex_l	wrist_dev_l
      1.96000000	     -1.87141495	     -1.44020360	     -7.73437429	      0.11054286	      0.85690596	     -0.16936564	    -16.30242861	     -5.89888055	      1.02836704	     18.45832665	     13.41581415	      0.32215857	     12.25931432	      6.62567394	     -7.50796765	     26.39553645	    -12.24554565	     -4.52353897	     13.59189883	     17.90355743	      0.23722339	     -5.45011262	     -8.58102468	     -7.50796765	    -11.60029065	      0.59412505	      5.13300830	     -3.78620513	    -14.19148409	     -4.25378508	     20.28602778	     90.00000001	      0.00000000	      0.00000000	    -13.14881130	     -6.55711612	      1.53340833	     20.73204204	     90.00000001	      0.00000000	      0.00000000
      1.97000000	     -1.74918486	     -1.27805155	     -7.53397347	      0.12274776	      0.85773711	     -0.17058977	    -15.95518255	     -6.44433770	      0.85680329	     20.77492518	     13.66169187	      0.36259085	     10.17886804	      6.57484144	     -7.50779999	     26.25772882	    -11.97360297	     -3.66631090	     14.74874823	     18.26988038	      0.25741422	     -6.22270704	     -8.83502156	     -7.50779999	    -11.82567219	      0.30955220	      4.89326553	     -4.02906318	    -14.11809001	     -4.37259085	     20.11704437	     90.00000001	      0.00000000	      0.00000000	    -12.97786431	     -6.74608812	      1.45881823	     20.73387088	     90.00000001	      0.00000000	      0.00000000
      1.98000000	     -1.89085741	     -1.07278848	     -7.28987007	      0.13455706	      0.85836651	     -0.17209215	    -14.90691001	     -7.06675288	      0.11604832	     23.91177869	     13.80323769	      0.41733927	      8.24422393	      7.17431153	     -7.50750452	     26.41011066	    -11.64711421	     -2.79021894	     15.85608337	     18.63829630	      0.27674086	     -6.80957657	     -9.39903765	     -7.50750452	    -11.79831157	      0.05075919	      4.61987341	     -4.24560095	    -14.07485380	     -4.57486696	     19.87925986	     90.00000001	      0.00000000	      0.00000000	    -12.76173128	     -6.94638589	      1.34249455	     20.71276068	     90.00000001	      0.00000000	      0.00000000
      1.99000000	     -2.01915381	     -0.84775566	     -7.08424134	      0.14632646	      0.85913809	     -0.17344580	    -13.60841512	     -7.75041291	     -1.06066686	     27.51050058	     13.66810039	      0.48014881	      6.20229816	      8.86739349	     -7.50708607	     26.44895015	    -11.31676636	     -1.91667892	     16.83414354	     19.00489170	      0.29381123	     -6.96978170	    -10.05475815	     -7.50708607	    -11.76339473	     -0.23764374	      4.36475767	     -4.45088539	    -13.98762681	     -4.74843763	     19.69314561	     90.00000001	      0.00000000	      0.00000000	    -12.59846298	     -7.16615914	      1.25228073	     20.71544313	     90.00000001	      0.00000000	      0.00000000
      2.00000000	     -1.86266763	     -0.75024816	     -6.80648746	      0.15825887	      0.86064156	     -0.17475500	    -12.74393898	     -8.27669971	     -1.46772128	     30.59045123	     13.72643603	      0.53390409	      3.51310381	      8.85088480	     -7.50688366	     26.00649663	    -11.10114127	     -1.32258284	     17.64416266	     19.39625842	      0.30794873	     -6.60509526	    -10.00687658	     -7.50688366	    -12.07049969	     -0.40880146	      4.04856752	     -4.63191650	    -13.94840723	     -4.80263979	     19.53881910	     90.00000001	      0.00000000	      0.00000000	    -12.39129386	     -7.41031454	      1.22196549	     20.76891038	     90.00000001	      0.00000000	      0.00000000
      2.01000000	     -1.63981041	     -0.73220113	     -6.55789347	      0.17013285	      0.86242849	     -0.17599825	    -11.84133303	     -8.70150696	     -1.59527226	     33.64617501	     13.77744319	      0.58723653	      0.64288728	      8.50320361	     -7.50678331	     25.36992454	    -10.97926587	     -0.86641847	     18.30511713	     19.79677954	      0.31948456	     -5.72804283	    -10.02592267	     -7.50678331	    -12.46235037	     -0.48817792	      3.80155606	     -4.80484185	    -13.92374648	     -4.84492490	     19.36266990	     90.00000001	      0.00000000	      0.00000000	    -12.15861152	     -7.64192066	      1.19067126	     20.86883684	     90.00000001	      0.00000000	      0.00000000
      2.02000000	     -1.63193085	     -0.68119287	     -6.29383566	      0.18162377	      0.86398931	     -0.17726279	    -10.42977063	     -9.15556592	     -1.77465999	     37.04600945	     13.79469708	      0.64657484	     -1.91176201	      7.92526708	     -7.50668676	     24.92099692	    -10.81183031	     -0.50943459	     18.84876459	     20.11412196	      0.32897300	     -4.76395115	     -9.81947588	     -7.50668676	    -12.63029511	     -0.56023447	      3.55691783	     -4.99337731	    -13.89851977	     -4.87989137	     19.18853081	     90.00000001	      0.00000000	      0.00000000	    -11.91602656	     -7.89792464	      1.16016684	     20.99201069	     90.00000001	      0.00000000	      0.00000000
      2.03000000	     -2.21270901	     -0.44997372	     -6.07699207	      0.19248409	      0.86459280	     -0.17878457	     -7.97085070	     -9.77832229	     -2.07689583	     40.99334751	     13.56399425	      0.71546889	     -3.58170390	      7.92934940	     -7.50638427	     25.32447955	    -10.43551984	     -0.71010785	     19.90717802	     20.08004381	      0.34744580	     -3.70637209	     -8.81118309	     -7.50638427	    -12.13144495	     -0.72711404	      3.27150086	     -5.19423318	    -13.87682158	     -4.92286527	     19.04020757	     90.00000001	      0.00000000	      0.00000000	    -11.72552544	     -8.09650956	      1.15824637	     21.04186381	     90.00000001	      0.00000000	      0.00000000
      2.04000000	     -2.42238817	     -0.38287672	     -5.84757373	      0.20358908	      0.86590260	     -0.17999928	     -6.06631634	    -10.18173783	     -1.81210906	     44.32660281	     13.60776096	      0.77364517	     -5.26124710	      6.78586448	     -7.50607613	     25.06790837	    -10.22380515	     -0.89764673	     20.54988870	     20.10843156	      0.35866322	     -2.42222664	     -7.72971922	     -7.50607613	    -12.03989501	     -0.76649074	      3.06564555	     -5.40810503	    -13.85419329	     -4.91856489	     18.88525055	     90.00000001	      0.00000000	      0.00000000	    -11.51349377	     -8.35051117	      1.17337302	     21.19275323	     90.00000001	      0.00000000	      0.00000000
      2.05000000	     -2.37068177	     -0.41261882	     -5.64801868	      0.21473371	      0.86777919	     -0.18088449	     -4.48935550	    -10.28328185	     -1.39975474	     47.21129886	     13.37865877	      0.82399261	     -6.56187022	      5.41572226	     -7.50593664	     24.23144905	    -10.17102143	     -0.85245425	     20.57935766	     20.37172645	      0.35917755	     -1.17265874	     -7.06434248	     -7.50593664	    -12.25647651	     -0.75019135	      2.82171085	     -5.52792020	    -13.82586640	     -4.88997765	     18.80490824	     90.00000001	      0.00000000	      0.00000000	    -11.32716525	     -8.61258017	      1.17525873	     21.45568835	     90.00000001	      0.00000000	      0.00000000
      2.06000000	     -2.36280299	     -0.47294501	     -5.29692026	      0.22564097	      0.86961302	     -0.18182924	     -2.88961602	    -10.31641744	     -0.88808548	     49.83996370	     13.38889365	      0.86987147	     -6.96405135	      4.05434947	     -7.50582944	     23.52401054	    -10.07567039	     -0.75441121	     20.69712215	     20.52097443	      0.36123293	     -0.28947604	     -6.45301884	     -7.50582944	    -12.43536565	     -0.68422929	      2.52087772	     -5.71380546	    -13.75967334	     -4.86338051	     18.72006864	     90.00000001	      0.00000000	      0.00000000	    -11.06278678	     -8.89770766	      1.18892827	     21.69315435	     90.00000001	      0.00000000	      0.00000000
      2.07000000	     -2.85574064	     -0.36340479	     -5.20326474	      0.23608924	      0.87071722	     -0.18288761	     -0.40871998	    -10.51192796	     -0.24747046	     52.70218760	     13.27117830	      0.91982670	     -7.17694988	      1.62600717	     -7.50566926	     23.27152101	     -9.82803662	     -0.97155162	     20.67425554	     20.46487949	      0.36083383	      0.71984728	     -5.54595484	     -7.50566926	    -12.01120793	     -0.70572972	      2.37871615	     -5.84365902	    -13.77975777	     -4.83030007	     18.58291127	     90.00000001	      0.00000000	      0.00000000	    -10.91601186	     -9.13064151	      1.25442824	     21.91853661	     90.00000001	      0.00000000	      0.00000000
      2.08000000	     -3.23646279	     -0.40795792	     -5.03453618	      0.24643167	      0.87204997	     -0.18402748	      1.79707296	    -10.50763128	      0.84531677	     54.98181044	     13.64342007	      0.95961362	     -6.86560471	     -1.05271338	     -7.50536378	     23.04877307	     -9.70114992	     -1.43304066	     21.05728160	     20.25389258	      0.36751890	      1.60220191	     -4.33743009	     -7.50536378	    -11.73637239	     -0.53982231	      2.21324216	     -5.99699701	    -13.84595987	     -4.84501553	     18.49555843	     90.00000001	      0.00000000	      0.00000000	    -10.71381283	     -9.31158436	      1.35465137	     22.10337806	     90.00000001	      0.00000000	      0.00000000
      2.09000000	     -3.24010959	     -0.52316986	     -4.78359409	      0.25717953	      0.87396147	     -0.18466741	      3.44312524	    -10.31114713	      0.91703968	     56.87165634	     13.20341057	      0.99259765	     -5.71671107	     -2.48662721	     -7.50524460	     22.09505717	     -9.70918526	     -1.47592205	     20.71266770	     20.36555082	      0.36150425	      2.37638096	     -3.59540268	     -7.50524460	    -11.83532325	     -0.38619227	      1.97191205	     -6.13970435	    -13.79066500	     -4.81170069	     18.44387015	     90.00000001	      0.00000000	      0.00000000	    -10.54431423	     -9.58948546	      1.36898945	     22.37602081	     90.00000001	      0.00000000	      0.00000000
      2.10000000	     -3.49837868	     -0.58069812	     -4.55044247	      0.26744206	      0.87550755	     -0.18562895	      5.45856973	    -10.20501162	      1.16685721	     58.60320123	     12.97733568	      1.02281881	     -4.59062558	     -4.33386361	     -7.50497995	     21.55013400	     -9.58874010	     -1.66090789	     20.59990012	     20.25946558	      0.35953608	      3.06334595	     -2.66969743	     -7.50497995	    -11.67387674	     -0.22206349	      1.74817754	     -6.26728012	    -13.80165118	     -4.82233222	     18.36821864	     90.00000001	      0.00000000	      0.00000000	    -10.34674184	     -9.80358030	      1.49875182	     22.62281883	     90.00000001	      0.00000000	      0.00000000
